<svg xmlns="http://www.w3.org/2000/svg" width="213.222412109375" height="178.16920471191406" viewBox="1.9156742095947266 14.18416976928711 213.222412109375 178.16920471191406"><title>Neo4j Graph Visualization</title><desc>Created using Neo4j (http://www.neo4j.com/)</desc><g class="layer relationships"><g class="relationship" transform="translate(30.915672156171823 162.227568616095) rotate(360.5440477887272)"><path class="outline" fill="#A5ABB6" stroke="none" d="M 25 0.5 L 33.00157843415993 0.5 L 33.00157843415993 -0.5 L 25 -0.5 Z M 78.56407843415994 0.5 L 86.56565686831986 0.5 L 86.56565686831986 3.5 L 93.56565686831986 0 L 86.56565686831986 -3.5 L 86.56565686831986 -0.5 L 78.56407843415994 -0.5 Z"/><text text-anchor="middle" pointer-events="none" font-size="8px" fill="#000000" x="55.78282843415993" y="3" font-family="sans-serif">ACTED_IN</text></g><g class="relationship" transform="translate(30.915672156171823 162.227568616095) rotate(284.5876770153654)"><path class="outline" fill="#A5ABB6" stroke="none" d="M 25 0.5 L 35.22314352196214 0.5 L 35.22314352196214 -0.5 L 25 -0.5 Z M 80.78564352196214 0.5 L 91.00878704392429 0.5 L 91.00878704392429 3.5 L 98.00878704392429 0 L 91.00878704392429 -3.5 L 91.00878704392429 -0.5 L 80.78564352196214 -0.5 Z"/><text text-anchor="middle" pointer-events="none" font-size="8px" fill="#000000" x="58.00439352196214" y="3" font-family="sans-serif">ACTED_IN</text></g><g class="relationship" transform="translate(30.915672156171823 162.227568616095) rotate(318.58610700488)"><path class="outline" fill="#A5ABB6" stroke="none" d="M 25 0.5 L 27.792351749301766 0.5 L 27.792351749301766 -0.5 L 25 -0.5 Z M 63.128289249301766 0.5 L 65.92064099860353 0.5 L 65.92064099860353 3.5 L 72.92064099860353 0 L 65.92064099860353 -3.5 L 65.92064099860353 -0.5 L 63.128289249301766 -0.5 Z"/><text text-anchor="middle" pointer-events="none" font-size="8px" fill="#000000" x="45.460320499301766" y="3" font-family="sans-serif">ACTE…</text></g><g class="relationship" transform="translate(186.13809811055103 49.96583860198378) rotate(467.91781393587894)"><path class="outline" fill="#A5ABB6" stroke="none" d="M 25 0.5 L 33.30240095710137 0.5 L 33.30240095710137 -0.5 L 25 -0.5 Z M 78.86490095710137 0.5 L 87.16730191420274 0.5 L 87.16730191420274 3.5 L 94.16730191420274 0 L 87.16730191420274 -3.5 L 87.16730191420274 -0.5 L 78.86490095710137 -0.5 Z"/><text text-anchor="middle" pointer-events="none" font-size="8px" fill="#000000" x="56.08365095710137" y="3" transform="rotate(180 56.08365095710137 0)" font-family="sans-serif">ACTED_IN</text></g><g class="relationship" transform="translate(186.13809811055103 49.96583860198378) rotate(183.12436971424376)"><path class="outline" fill="#A5ABB6" stroke="none" d="M 25 0.5 L 35.93186625173564 0.5 L 35.93186625173564 -0.5 L 25 -0.5 Z M 81.49436625173564 0.5 L 92.42623250347128 0.5 L 92.42623250347128 3.5 L 99.42623250347128 0 L 92.42623250347128 -3.5 L 92.42623250347128 -0.5 L 81.49436625173564 -0.5 Z"/><text text-anchor="middle" pointer-events="none" font-size="8px" fill="#000000" x="58.71311625173564" y="3" transform="rotate(180 58.71311625173564 0)" font-family="sans-serif">ACTED_IN</text></g><g class="relationship" transform="translate(186.13809811055103 49.96583860198378) rotate(509.8592716454287)"><path class="outline" fill="#A5ABB6" stroke="none" d="M 25 0.5 L 26.118845524504422 0.5 L 26.118845524504422 -0.5 L 25 -0.5 Z M 61.45478302450442 0.5 L 62.573628549008845 0.5 L 62.573628549008845 3.5 L 69.57362854900884 0 L 62.573628549008845 -3.5 L 62.573628549008845 -0.5 L 61.45478302450442 -0.5 Z"/><text text-anchor="middle" pointer-events="none" font-size="8px" fill="#000000" x="43.78681427450442" y="3" transform="rotate(180 43.78681427450442 0)" font-family="sans-serif">ACTE…</text></g></g><g class="layer nodes"><g class="node" transform="translate(149.47598394107865,163.3533830243555)"><circle class="outline" cx="0" cy="0" r="25" fill="#F79767" stroke="#f36924" stroke-width="2px"/><text text-anchor="middle" pointer-events="none" font-family="sans-serif" dy="1.5625" font-size="25" fill="#FFFFFF"/><text text-anchor="middle" pointer-events="none" font-family="sans-serif" dy="1.5625" font-size="25" fill="#FFFFFF"/><text text-anchor="middle" pointer-events="none" font-family="sans-serif" dy="1.5625" font-size="25" fill="#FFFFFF"/><text text-anchor="middle" pointer-events="none" x="0" y="-5" font-size="10px" fill="#FFFFFF" font-family="sans-serif"> The</text><text text-anchor="middle" pointer-events="none" x="0" y="5" font-size="10px" fill="#FFFFFF" font-family="sans-serif"> Matrix</text><text text-anchor="middle" pointer-events="none" x="0" y="15" font-size="10px" fill="#FFFFFF" font-family="sans-serif"> Revol…</text></g><g class="node" transform="translate(30.915672156171823,162.227568616095)"><circle class="outline" cx="0" cy="0" r="25" fill="#57C7E3" stroke="#23b3d7" stroke-width="2px"/><text text-anchor="middle" pointer-events="none" font-family="sans-serif" dy="1.5625" font-size="25" fill="#2A2C34"/><text text-anchor="middle" pointer-events="none" font-family="sans-serif" dy="1.5625" font-size="25" fill="#2A2C34"/><text text-anchor="middle" pointer-events="none" x="0" y="0" font-size="10px" fill="#2A2C34" font-family="sans-serif"> Hugo</text><text text-anchor="middle" pointer-events="none" x="0" y="10" font-size="10px" fill="#2A2C34" font-family="sans-serif"> Weaving</text></g><g class="node" transform="translate(186.13809811055103,49.96583860198378)"><circle class="outline" cx="0" cy="0" r="25" fill="#57C7E3" stroke="#23b3d7" stroke-width="2px"/><text text-anchor="middle" pointer-events="none" font-family="sans-serif" dy="1.5625" font-size="25" fill="#2A2C34"/><text text-anchor="middle" pointer-events="none" font-family="sans-serif" dy="1.5625" font-size="25" fill="#2A2C34"/><text text-anchor="middle" pointer-events="none" x="0" y="0" font-size="10px" fill="#2A2C34" font-family="sans-serif"> Keanu</text><text text-anchor="middle" pointer-events="none" x="0" y="10" font-size="10px" fill="#2A2C34" font-family="sans-serif"> Reeves</text></g><g class="node" transform="translate(61.896815425591235,43.18417126984474)"><circle class="outline" cx="0" cy="0" r="25" fill="#F79767" stroke="#f36924" stroke-width="2px"/><text text-anchor="middle" pointer-events="none" font-family="sans-serif" dy="1.5625" font-size="25" fill="#FFFFFF"/><text text-anchor="middle" pointer-events="none" font-family="sans-serif" dy="1.5625" font-size="25" fill="#FFFFFF"/><text text-anchor="middle" pointer-events="none" font-family="sans-serif" dy="1.5625" font-size="25" fill="#FFFFFF"/><text text-anchor="middle" pointer-events="none" x="0" y="-5" font-size="10px" fill="#FFFFFF" font-family="sans-serif"> The</text><text text-anchor="middle" pointer-events="none" x="0" y="5" font-size="10px" fill="#FFFFFF" font-family="sans-serif"> Matrix</text><text text-anchor="middle" pointer-events="none" x="0" y="15" font-size="10px" fill="#FFFFFF" font-family="sans-serif"> Reloa…</text></g><g class="node" transform="translate(104.35132479729698,97.4536783921058)"><circle class="outline" cx="0" cy="0" r="25" fill="#F79767" stroke="#f36924" stroke-width="2px"/><text text-anchor="middle" pointer-events="none" font-family="sans-serif" dy="1.5625" font-size="25" fill="#FFFFFF"/><text text-anchor="middle" pointer-events="none" font-family="sans-serif" dy="1.5625" font-size="25" fill="#FFFFFF"/><text text-anchor="middle" pointer-events="none" x="0" y="0" font-size="10px" fill="#FFFFFF" font-family="sans-serif"> The</text><text text-anchor="middle" pointer-events="none" x="0" y="10" font-size="10px" fill="#FFFFFF" font-family="sans-serif"> Matrix</text></g></g></svg>