<svg xmlns="http://www.w3.org/2000/svg" width="361.69866943359375" height="363.00775146484375" viewBox="-89.84904479980469 -75.54510498046875 361.69866943359375 363.00775146484375"><title>Neo4j Graph Visualization</title><desc>Created using Neo4j (http://www.neo4j.com/)</desc><g class="layer relationships"><g class="relationship" transform="translate(138.02559371591465 258.4626506781732) rotate(329.2084958998446)"><path class="outline" fill="#A5ABB6" stroke="none" d="M 21.40063509461097,12.933012701892217 L 21.90063509461097,12.06698729810778 A 57.55573642329075 57.55573642329075 0 0 0 24.23215770596573,13.342249593546867 L 23.772666658786832,14.230431994612346 A 58.55573642329075 58.55573642329075 0 0 1 21.40063509461097,12.933012701892217 Z M 74.26084311338863,15.819342392142083 L 73.85810990145089,14.904024982713914 A 57.55573642329075 57.55573642329075 0 0 0 76.26520669657839,13.777891496703429 L 74.9315410197736,11.090637161417536 L 82.75774442504627,11.113880640039904 L 78.04342759898476,17.360897277084618 L 76.70976192217998,14.673642941798725 A 58.55573642329075 58.55573642329075 0 0 1 74.26084311338863,15.819342392142083"/><text text-anchor="middle" pointer-events="none" font-size="8px" fill="#000000" x="48.8523387903767" y="23.249265399436567" font-family="sans-serif">PRODUCED</text></g><g class="relationship" transform="translate(138.02559371591465 258.4626506781732) rotate(329.2084958998446)"><path class="outline" fill="#A5ABB6" stroke="none" d="M 25 0.5 L 25.630452776214355 0.5 L 25.630452776214355 -0.5 L 25 -0.5 Z M 72.52107777621436 0.5 L 73.15153055242871 0.5 L 73.15153055242871 3.5 L 80.15153055242871 0 L 73.15153055242871 -3.5 L 73.15153055242871 -0.5 L 72.52107777621436 -0.5 Z"/><text text-anchor="middle" pointer-events="none" font-size="8px" fill="#000000" x="49.075765276214355" y="3" font-family="sans-serif">DIRECTED</text></g><g class="relationship" transform="translate(138.02559371591465 258.4626506781732) rotate(329.2084958998446)"><path class="outline" fill="#A5ABB6" stroke="none" d="M 21.40063509461097,-12.933012701892217 L 21.90063509461097,-12.06698729810778 A 57.55573642329075 57.55573642329075 0 0 1 31.508491680173822,-16.491709690149797 L 31.175423026771533,-17.43461226842647 A 58.55573642329075 58.55573642329075 0 0 0 21.40063509461097,-12.933012701892217 Z M 66.67125832783046,-18.551699589446457 L 66.39813811795102,-17.589719677517202 A 57.55573642329075 57.55573642329075 0 0 1 76.26520669657839,-13.777891496703429 L 74.9315410197736,-11.090637161417536 L 82.75774442504627,-11.113880640039904 L 78.04342759898476,-17.360897277084618 L 76.70976192217998,-14.673642941798725 A 58.55573642329075 58.55573642329075 0 0 0 66.67125832783046,-18.551699589446457"/><text text-anchor="middle" pointer-events="none" font-size="8px" fill="#000000" x="48.85233879037671" y="-17.249265399436567" font-family="sans-serif">WROTE</text></g><g class="relationship" transform="translate(242.84962706364675 14.43787576274381) rotate(202.1501920997522)"><path class="outline" fill="#A5ABB6" stroke="none" d="M 24.018736134675446,6.953439040707552 L 24.277555179777966,5.987513214418485 A 99.59813631730034 99.59813631730034 0 0 0 30.751297234622708,7.492560488307788 L 30.55747681594248,8.473597513757198 A 100.59813631730034 100.59813631730034 0 0 1 24.018736134675446,6.953439040707552 Z M 66.31379409205903,9.058733899328544 L 66.1521773368006,8.071880301057888 A 99.59813631730034 99.59813631730034 0 0 0 72.6716986828166,6.779462060646679 L 71.99047361766016,3.8578302545145986 L 79.60237707465086,5.676875542970336 L 73.57999876969184,10.674971135489454 L 72.8987737045354,7.753339329357374 A 100.59813631730034 100.59813631730034 0 0 1 66.31379409205903,9.058733899328544"/><text text-anchor="middle" pointer-events="none" font-size="8px" fill="#000000" x="48.41760708806947" y="12.867837023016136" transform="rotate(180 48.41760708806947 9.867837023016136)" font-family="sans-serif">WROTE</text></g><g class="relationship" transform="translate(242.84962706364675 14.43787576274381) rotate(202.1501920997522)"><path class="outline" fill="#A5ABB6" stroke="none" d="M 24.018736134675446,-6.953439040707552 L 24.277555179777966,-5.987513214418485 A 99.59813631730034 99.59813631730034 0 0 1 25.357895283450194,-6.270507335470711 L 25.10992322950251,-7.2392745213626455 A 100.59813631730034 100.59813631730034 0 0 0 24.018736134675446,-6.953439040707552 Z M 71.7988182515532,-8.003317727170412 L 71.5826773832218,-7.02695553769513 A 99.59813631730034 99.59813631730034 0 0 1 72.6716986828166,-6.779462060646679 L 71.99047361766016,-3.8578302545145986 L 79.60237707465086,-5.676875542970336 L 73.57999876969184,-10.674971135489454 L 72.8987737045354,-7.753339329357374 A 100.59813631730034 100.59813631730034 0 0 0 71.7988182515532,-8.003317727170412"/><text text-anchor="middle" pointer-events="none" font-size="8px" fill="#000000" x="48.417607088069424" y="-6.867837023016136" transform="rotate(180 48.417607088069424 -9.867837023016136)" font-family="sans-serif">DIRECTED</text></g><g class="relationship" transform="translate(45.02555810061847 -46.54510411720528) rotate(372.11117655103993)"><path class="outline" fill="#A5ABB6" stroke="none" d="M 24.018736134675446,6.953439040707552 L 24.277555179777966,5.987513214418485 A 99.41520548696751 99.41520548696751 0 0 0 30.706183016923795,7.4832263489677615 L 30.51202840424543,8.464197289605508 A 100.41520548696751 100.41520548696751 0 0 1 24.018736134675446,6.953439040707552 Z M 66.26796424252738,9.049810461608203 L 66.10603796422033,8.063007603690977 A 99.41520548696751 99.41520548696751 0 0 0 72.58019852760142,6.778617223413546 L 71.89905237844496,3.856967017880838 L 79.51090669870382,5.676217909637237 L 73.48839339314338,10.674150830790492 L 72.80724724398692,7.752500625257783 A 100.41520548696751 100.41520548696751 0 0 1 66.26796424252738,9.049810461608203"/><text text-anchor="middle" pointer-events="none" font-size="8px" fill="#000000" x="48.371905070564274" y="12.861606207091697" font-family="sans-serif">WROTE</text></g><g class="relationship" transform="translate(45.02555810061847 -46.54510411720528) rotate(372.11117655103993)"><path class="outline" fill="#A5ABB6" stroke="none" d="M 24.018736134675446,-6.953439040707552 L 24.277555179777966,-5.987513214418485 A 99.41520548696751 99.41520548696751 0 0 1 25.313312020831013,-6.259073598665992 L 25.06491147092729,-7.227731002915576 A 100.41520548696751 100.41520548696751 0 0 0 24.018736134675446,-6.953439040707552 Z M 71.75265067599318,-7.992386000988418 L 71.53610431891553,-7.016113664375126 A 99.41520548696751 99.41520548696751 0 0 1 72.58019852760142,-6.778617223413546 L 71.89905237844496,-3.856967017880838 L 79.51090669870382,-5.676217909637237 L 73.48839339314338,-10.674150830790492 L 72.80724724398692,-7.752500625257783 A 100.41520548696751 100.41520548696751 0 0 0 71.75265067599318,-7.992386000988418"/><text text-anchor="middle" pointer-events="none" font-size="8px" fill="#000000" x="48.371905070564225" y="-6.861606207091697" font-family="sans-serif">DIRECTED</text></g><g class="relationship" transform="translate(-60.849049495942424 97.64239985127018) rotate(431.2937075743786)"><path class="outline" fill="#A5ABB6" stroke="none" d="M 21.40063509461097,12.933012701892217 L 21.90063509461097,12.06698729810778 A 57.155510078408255 57.155510078408255 0 0 0 24.053365018778987,13.248942333097688 L 23.591029452553,14.135647370978099 A 58.155510078408255 58.155510078408255 0 0 1 21.40063509461097,12.933012701892217 Z M 74.058396155342,15.729437984824237 L 73.65293146266308,14.815327278732902 A 57.155510078408255 57.155510078408255 0 0 0 75.87595103707594,13.771561115780896 L 74.54287426800751,11.084014590086861 L 82.36907239187342,11.108973075570233 L 77.65338672916717,17.35495648337294 L 76.32030996009874,14.667409957678908 A 58.155510078408255 58.155510078408255 0 0 1 74.058396155342,15.729437984824237"/><text text-anchor="middle" pointer-events="none" font-size="8px" fill="#000000" x="48.658500805971684" y="23.195644229243385" font-family="sans-serif">PRODUCED</text></g><g class="relationship" transform="translate(-60.849049495942424 97.64239985127018) rotate(431.2937075743786)"><path class="outline" fill="#A5ABB6" stroke="none" d="M 25 0.5 L 30.99592796966185 0.5 L 30.99592796966185 -0.5 L 25 -0.5 Z M 66.76936546966185 0.5 L 72.7652934393237 0.5 L 72.7652934393237 3.5 L 79.7652934393237 0 L 72.7652934393237 -3.5 L 72.7652934393237 -0.5 L 66.76936546966185 -0.5 Z"/><text text-anchor="middle" pointer-events="none" font-size="8px" fill="#000000" x="48.88264671966185" y="3" font-family="sans-serif">WROTE</text></g><g class="relationship" transform="translate(-60.849049495942424 97.64239985127018) rotate(431.2937075743786)"><path class="outline" fill="#A5ABB6" stroke="none" d="M 21.40063509461097,-12.933012701892217 L 21.90063509461097,-12.06698729810778 A 57.155510078408255 57.155510078408255 0 0 1 26.225951234455934,-14.323781628769105 L 25.80162751018003,-15.229292190284887 A 58.155510078408255 58.155510078408255 0 0 0 21.40063509461097,-12.933012701892217 Z M 71.78319598528472,-16.68141852525168 L 71.41685398565741,-15.750938251785833 A 57.155510078408255 57.155510078408255 0 0 1 75.87595103707594,-13.771561115780896 L 74.54287426800751,-11.084014590086861 L 82.36907239187342,-11.108973075570233 L 77.65338672916717,-17.35495648337294 L 76.32030996009874,-14.667409957678908 A 58.155510078408255 58.155510078408255 0 0 0 71.78319598528472,-16.68141852525168"/><text text-anchor="middle" pointer-events="none" font-size="8px" fill="#000000" x="48.65850080597167" y="-17.195644229243385" font-family="sans-serif">DIRECTED</text></g></g><g class="layer nodes"><g class="node" transform="translate(138.02559371591465,258.4626506781732)"><circle class="outline" cx="0" cy="0" r="25" fill="#57C7E3" stroke="#23b3d7" stroke-width="2px"/><text text-anchor="middle" pointer-events="none" font-family="sans-serif" dy="1.5625" font-size="25" fill="#2A2C34"/><text text-anchor="middle" pointer-events="none" font-family="sans-serif" dy="1.5625" font-size="25" fill="#2A2C34"/><text text-anchor="middle" pointer-events="none" x="0" y="0" font-size="10px" fill="#2A2C34" font-family="sans-serif"> Cameron</text><text text-anchor="middle" pointer-events="none" x="0" y="10" font-size="10px" fill="#2A2C34" font-family="sans-serif"> Crowe</text></g><g class="node" transform="translate(228.3545243503228,204.63395323932903)"><circle class="outline" cx="0" cy="0" r="25" fill="#F79767" stroke="#f36924" stroke-width="2px"/><text text-anchor="middle" pointer-events="none" font-family="sans-serif" dy="1.5625" font-size="25" fill="#FFFFFF"/><text text-anchor="middle" pointer-events="none" font-family="sans-serif" dy="1.5625" font-size="25" fill="#FFFFFF"/><text text-anchor="middle" pointer-events="none" x="0" y="0" font-size="10px" fill="#FFFFFF" font-family="sans-serif"> Jerry</text><text text-anchor="middle" pointer-events="none" x="0" y="10" font-size="10px" fill="#FFFFFF" font-family="sans-serif"> Maguire</text></g><g class="node" transform="translate(242.84962706364675,14.43787576274381)"><circle class="outline" cx="0" cy="0" r="25" fill="#57C7E3" stroke="#23b3d7" stroke-width="2px"/><text text-anchor="middle" pointer-events="none" font-family="sans-serif" dy="1.5625" font-size="25" fill="#2A2C34"/><text text-anchor="middle" pointer-events="none" font-family="sans-serif" dy="1.5625" font-size="25" fill="#2A2C34"/><text text-anchor="middle" pointer-events="none" x="0" y="0" font-size="10px" fill="#2A2C34" font-family="sans-serif"> Lana</text><text text-anchor="middle" pointer-events="none" x="0" y="10" font-size="10px" fill="#2A2C34" font-family="sans-serif"> Wacho…</text></g><g class="node" transform="translate(146.5719127682745,-24.75473232194729)"><circle class="outline" cx="0" cy="0" r="25" fill="#F79767" stroke="#f36924" stroke-width="2px"/><text text-anchor="middle" pointer-events="none" font-family="sans-serif" dy="1.5625" font-size="25" fill="#FFFFFF"/><text text-anchor="middle" pointer-events="none" font-family="sans-serif" dy="1.5625" font-size="25" fill="#FFFFFF"/><text text-anchor="middle" pointer-events="none" x="0" y="0" font-size="10px" fill="#FFFFFF" font-family="sans-serif"> Speed</text><text text-anchor="middle" pointer-events="none" x="0" y="10" font-size="10px" fill="#FFFFFF" font-family="sans-serif"> Racer</text></g><g class="node" transform="translate(45.02555810061847,-46.54510411720528)"><circle class="outline" cx="0" cy="0" r="25" fill="#57C7E3" stroke="#23b3d7" stroke-width="2px"/><text text-anchor="middle" pointer-events="none" font-family="sans-serif" dy="1.5625" font-size="25" fill="#2A2C34"/><text text-anchor="middle" pointer-events="none" font-family="sans-serif" dy="1.5625" font-size="25" fill="#2A2C34"/><text text-anchor="middle" pointer-events="none" x="0" y="0" font-size="10px" fill="#2A2C34" font-family="sans-serif"> Andy</text><text text-anchor="middle" pointer-events="none" x="0" y="10" font-size="10px" fill="#2A2C34" font-family="sans-serif"> Wacho…</text></g><g class="node" transform="translate(-60.849049495942424,97.64239985127018)"><circle class="outline" cx="0" cy="0" r="25" fill="#57C7E3" stroke="#23b3d7" stroke-width="2px"/><text text-anchor="middle" pointer-events="none" font-family="sans-serif" dy="1.5625" font-size="25" fill="#2A2C34"/><text text-anchor="middle" pointer-events="none" font-family="sans-serif" dy="1.5625" font-size="25" fill="#2A2C34"/><text text-anchor="middle" pointer-events="none" x="0" y="0" font-size="10px" fill="#2A2C34" font-family="sans-serif"> Nancy</text><text text-anchor="middle" pointer-events="none" x="0" y="10" font-size="10px" fill="#2A2C34" font-family="sans-serif"> Meyers</text></g><g class="node" transform="translate(-27.24903734592989,196.8734730740597)"><circle class="outline" cx="0" cy="0" r="25" fill="#F79767" stroke="#f36924" stroke-width="2px"/><text text-anchor="middle" pointer-events="none" font-family="sans-serif" dy="1.5625" font-size="25" fill="#FFFFFF"/><text text-anchor="middle" pointer-events="none" x="0" y="5" font-size="10px" fill="#FFFFFF" font-family="sans-serif"> Somethi…</text></g></g></svg>