<svg xmlns="http://www.w3.org/2000/svg" width="421.8546142578125" height="444.1143798828125" viewBox="-140.4912109375 -123.70704650878906 421.8546142578125 444.1143798828125"><title>Neo4j Graph Visualization</title><desc>Created using Neo4j (http://www.neo4j.com/)</desc><g class="layer relationships"><g class="relationship" transform="translate(147.7776194009754 -31.23500713177114) rotate(488.1892447648031)"><path class="outline" fill="#A5ABB6" stroke="none" d="M 25 0.5 L 38.22086191785489 0.5 L 38.22086191785489 -0.5 L 25 -0.5 Z M 83.78336191785489 0.5 L 97.00422383570978 0.5 L 97.00422383570978 3.5 L 104.00422383570978 0 L 97.00422383570978 -3.5 L 97.00422383570978 -0.5 L 83.78336191785489 -0.5 Z"/><text text-anchor="middle" pointer-events="none" font-size="8px" fill="#000000" x="61.00211191785489" y="3" transform="rotate(180 61.00211191785489 0)" font-family="sans-serif">ACTED_IN</text></g><g class="relationship" transform="translate(-28.720077396539804 23.716479089233243) rotate(225.43528836825038)"><path class="outline" fill="#A5ABB6" stroke="none" d="M 25 0.5 L 32.69654706664946 0.5 L 32.69654706664946 -0.5 L 25 -0.5 Z M 78.25904706664946 0.5 L 85.95559413329892 0.5 L 85.95559413329892 3.5 L 92.95559413329892 0 L 85.95559413329892 -3.5 L 85.95559413329892 -0.5 L 78.25904706664946 -0.5 Z"/><text text-anchor="middle" pointer-events="none" font-size="8px" fill="#000000" x="55.47779706664946" y="3" transform="rotate(180 55.47779706664946 0)" font-family="sans-serif">ACTED_IN</text></g><g class="relationship" transform="translate(-28.720077396539804 23.716479089233243) rotate(284.6619274480886)"><path class="outline" fill="#A5ABB6" stroke="none" d="M 25 0.5 L 34.92357852784053 0.5 L 34.92357852784053 -0.5 L 25 -0.5 Z M 80.48607852784053 0.5 L 90.40965705568107 0.5 L 90.40965705568107 3.5 L 97.40965705568107 0 L 90.40965705568107 -3.5 L 90.40965705568107 -0.5 L 80.48607852784053 -0.5 Z"/><text text-anchor="middle" pointer-events="none" font-size="8px" fill="#000000" x="57.70482852784053" y="3" font-family="sans-serif">ACTED_IN</text></g><g class="relationship" transform="translate(-28.720077396539804 23.716479089233243) rotate(446.02365364761454)"><path class="outline" fill="#A5ABB6" stroke="none" d="M 25 0.5 L 42.884640759510674 0.5 L 42.884640759510674 -0.5 L 25 -0.5 Z M 88.44714075951067 0.5 L 106.33178151902135 0.5 L 106.33178151902135 3.5 L 113.33178151902135 0 L 106.33178151902135 -3.5 L 106.33178151902135 -0.5 L 88.44714075951067 -0.5 Z"/><text text-anchor="middle" pointer-events="none" font-size="8px" fill="#000000" x="65.66589075951067" y="3" font-family="sans-serif">ACTED_IN</text></g><g class="relationship" transform="translate(-28.720077396539804 23.716479089233243) rotate(419.85779090789913)"><path class="outline" fill="#A5ABB6" stroke="none" d="M 25 0.5 L 27.393351427638216 0.5 L 27.393351427638216 -0.5 L 25 -0.5 Z M 72.95585142763821 0.5 L 75.34920285527643 0.5 L 75.34920285527643 3.5 L 82.34920285527643 0 L 75.34920285527643 -3.5 L 75.34920285527643 -0.5 L 72.95585142763821 -0.5 Z"/><text text-anchor="middle" pointer-events="none" font-size="8px" fill="#000000" x="50.174601427638216" y="3" font-family="sans-serif">ACTED_IN</text></g><g class="relationship" transform="translate(-28.720077396539804 23.716479089233243) rotate(385.64457639420084)"><path class="outline" fill="#A5ABB6" stroke="none" d="M 25 0.5 L 27.37368795114275 0.5 L 27.37368795114275 -0.5 L 25 -0.5 Z M 72.93618795114276 0.5 L 75.3098759022855 0.5 L 75.3098759022855 3.5 L 82.3098759022855 0 L 75.3098759022855 -3.5 L 75.3098759022855 -0.5 L 72.93618795114276 -0.5 Z"/><text text-anchor="middle" pointer-events="none" font-size="8px" fill="#000000" x="50.15493795114275" y="3" font-family="sans-serif">ACTED_IN</text></g><g class="relationship" transform="translate(51.826742693687756 211.55506932629356) rotate(215.0850368942307)"><path class="outline" fill="#A5ABB6" stroke="none" d="M 25 0.5 L 27.29803683318653 0.5 L 27.29803683318653 -0.5 L 25 -0.5 Z M 52.41131808318653 0.5 L 54.70935491637306 0.5 L 54.70935491637306 3.5 L 61.70935491637306 0 L 54.70935491637306 -3.5 L 54.70935491637306 -0.5 L 52.41131808318653 -0.5 Z"/><text text-anchor="middle" pointer-events="none" font-size="8px" fill="#000000" x="39.85467745818653" y="3" transform="rotate(180 39.85467745818653 0)" font-family="sans-serif">AC…</text></g><g class="relationship" transform="translate(51.826742693687756 211.55506932629356) rotate(254.33524717507333)"><path class="outline" fill="#A5ABB6" stroke="none" d="M 25 0.5 L 25.278234203555677 0.5 L 25.278234203555677 -0.5 L 25 -0.5 Z M 66.39151545355568 0.5 L 66.66974965711135 0.5 L 66.66974965711135 3.5 L 73.66974965711135 0 L 66.66974965711135 -3.5 L 66.66974965711135 -0.5 L 66.39151545355568 -0.5 Z"/><text text-anchor="middle" pointer-events="none" font-size="8px" fill="#000000" x="45.83487482855568" y="3" transform="rotate(180 45.83487482855568 0)" font-family="sans-serif">ACTED…</text></g><g class="relationship" transform="translate(51.826742693687756 211.55506932629356) rotate(276.5330180826522)"><path class="outline" fill="#A5ABB6" stroke="none" d="M 25 0.5 L 44.87895419526717 0.5 L 44.87895419526717 -0.5 L 25 -0.5 Z M 90.44145419526717 0.5 L 110.32040839053434 0.5 L 110.32040839053434 3.5 L 117.32040839053434 0 L 110.32040839053434 -3.5 L 110.32040839053434 -0.5 L 90.44145419526717 -0.5 Z"/><text text-anchor="middle" pointer-events="none" font-size="8px" fill="#000000" x="67.66020419526717" y="3" font-family="sans-serif">ACTED_IN</text></g><g class="relationship" transform="translate(-72.52859366605301 85.80753447892053) rotate(414.8736153025533)"><path class="outline" fill="#A5ABB6" stroke="none" d="M 25 0.5 L 25.236931407072134 0.5 L 25.236931407072134 -0.5 L 25 -0.5 Z M 60.572868907072134 0.5 L 60.80980031414427 0.5 L 60.80980031414427 3.5 L 67.80980031414427 0 L 60.80980031414427 -3.5 L 60.80980031414427 -0.5 L 60.572868907072134 -0.5 Z"/><text text-anchor="middle" pointer-events="none" font-size="8px" fill="#000000" x="42.904900157072134" y="3" font-family="sans-serif">ACTE…</text></g><g class="relationship" transform="translate(-72.52859366605301 85.80753447892053) rotate(377.4645595215038)"><path class="outline" fill="#A5ABB6" stroke="none" d="M 25 0.5 L 27.161209416200002 0.5 L 27.161209416200002 -0.5 L 25 -0.5 Z M 68.2744906662 0.5 L 70.4357000824 0.5 L 70.4357000824 3.5 L 77.4357000824 0 L 70.4357000824 -3.5 L 70.4357000824 -0.5 L 68.2744906662 -0.5 Z"/><text text-anchor="middle" pointer-events="none" font-size="8px" fill="#000000" x="47.7178500412" y="3" font-family="sans-serif">ACTED…</text></g><g class="relationship" transform="translate(-72.52859366605301 85.80753447892053) rotate(353.6468135572792)"><path class="outline" fill="#A5ABB6" stroke="none" d="M 25 0.5 L 44.42696781603355 0.5 L 44.42696781603355 -0.5 L 25 -0.5 Z M 89.98946781603355 0.5 L 109.4164356320671 0.5 L 109.4164356320671 3.5 L 116.4164356320671 0 L 109.4164356320671 -3.5 L 109.4164356320671 -0.5 L 89.98946781603355 -0.5 Z"/><text text-anchor="middle" pointer-events="none" font-size="8px" fill="#000000" x="67.20821781603355" y="3" font-family="sans-serif">ACTED_IN</text></g><g class="relationship" transform="translate(124.72572802651278 165.37988892989375) rotate(402.7714042424129)"><path class="outline" fill="#A5ABB6" stroke="none" d="M 25 0.5 L 36.408820647373325 0.5 L 36.408820647373325 -0.5 L 25 -0.5 Z M 81.97132064737332 0.5 L 93.38014129474665 0.5 L 93.38014129474665 3.5 L 100.38014129474665 0 L 93.38014129474665 -3.5 L 93.38014129474665 -0.5 L 81.97132064737332 -0.5 Z"/><text text-anchor="middle" pointer-events="none" font-size="8px" fill="#000000" x="59.190070647373325" y="3" font-family="sans-serif">ACTED_IN</text></g><g class="relationship" transform="translate(124.72572802651278 165.37988892989375) rotate(324.2181617838736)"><path class="outline" fill="#A5ABB6" stroke="none" d="M 25 0.5 L 37.325995604709874 0.5 L 37.325995604709874 -0.5 L 25 -0.5 Z M 82.88849560470987 0.5 L 95.21449120941975 0.5 L 95.21449120941975 3.5 L 102.21449120941975 0 L 95.21449120941975 -3.5 L 95.21449120941975 -0.5 L 82.88849560470987 -0.5 Z"/><text text-anchor="middle" pointer-events="none" font-size="8px" fill="#000000" x="60.107245604709874" y="3" font-family="sans-serif">ACTED_IN</text></g><g class="relationship" transform="translate(124.72572802651278 165.37988892989375) rotate(446.8193226607213)"><path class="outline" fill="#A5ABB6" stroke="none" d="M 25 0.5 L 36.82968807183931 0.5 L 36.82968807183931 -0.5 L 25 -0.5 Z M 82.39218807183931 0.5 L 94.22187614367861 0.5 L 94.22187614367861 3.5 L 101.22187614367861 0 L 94.22187614367861 -3.5 L 94.22187614367861 -0.5 L 82.39218807183931 -0.5 Z"/><text text-anchor="middle" pointer-events="none" font-size="8px" fill="#000000" x="59.61093807183931" y="3" font-family="sans-serif">ACTED_IN</text></g><g class="relationship" transform="translate(124.72572802651278 165.37988892989375) rotate(362.43897462115035)"><path class="outline" fill="#A5ABB6" stroke="none" d="M 25 0.5 L 37.59544871665481 0.5 L 37.59544871665481 -0.5 L 25 -0.5 Z M 83.1579487166548 0.5 L 95.75339743330962 0.5 L 95.75339743330962 3.5 L 102.75339743330962 0 L 95.75339743330962 -3.5 L 95.75339743330962 -0.5 L 83.1579487166548 -0.5 Z"/><text text-anchor="middle" pointer-events="none" font-size="8px" fill="#000000" x="60.37669871665481" y="3" font-family="sans-serif">ACTED_IN</text></g><g class="relationship" transform="translate(124.72572802651278 165.37988892989375) rotate(181.45928020746385)"><path class="outline" fill="#A5ABB6" stroke="none" d="M 25 0.5 L 45.6687040296173 0.5 L 45.6687040296173 -0.5 L 25 -0.5 Z M 91.2312040296173 0.5 L 111.8999080592346 0.5 L 111.8999080592346 3.5 L 118.8999080592346 0 L 111.8999080592346 -3.5 L 111.8999080592346 -0.5 L 91.2312040296173 -0.5 Z"/><text text-anchor="middle" pointer-events="none" font-size="8px" fill="#000000" x="68.4499540296173" y="3" transform="rotate(180 68.4499540296173 0)" font-family="sans-serif">ACTED_IN</text></g><g class="relationship" transform="translate(124.72572802651278 165.37988892989375) rotate(206.13031913156095)"><path class="outline" fill="#A5ABB6" stroke="none" d="M 25 0.5 L 29.154936759577154 0.5 L 29.154936759577154 -0.5 L 25 -0.5 Z M 74.71743675957715 0.5 L 78.87237351915431 0.5 L 78.87237351915431 3.5 L 85.87237351915431 0 L 78.87237351915431 -3.5 L 78.87237351915431 -0.5 L 74.71743675957715 -0.5 Z"/><text text-anchor="middle" pointer-events="none" font-size="8px" fill="#000000" x="51.936186759577154" y="3" transform="rotate(180 51.936186759577154 0)" font-family="sans-serif">ACTED_IN</text></g><g class="relationship" transform="translate(124.72572802651278 165.37988892989375) rotate(239.22521167589377)"><path class="outline" fill="#A5ABB6" stroke="none" d="M 25 0.5 L 29.132339600097403 0.5 L 29.132339600097403 -0.5 L 25 -0.5 Z M 74.6948396000974 0.5 L 78.8271792001948 0.5 L 78.8271792001948 3.5 L 85.8271792001948 0 L 78.8271792001948 -3.5 L 78.8271792001948 -0.5 L 74.6948396000974 -0.5 Z"/><text text-anchor="middle" pointer-events="none" font-size="8px" fill="#000000" x="51.9135896000974" y="3" transform="rotate(180 51.9135896000974 0)" font-family="sans-serif">ACTED_IN</text></g></g><g class="layer nodes"><g class="node" transform="translate(68.01935600783966,70.15882496843648)"><circle class="outline" cx="0" cy="0" r="25" fill="#F79767" stroke="#f36924" stroke-width="2px"/><text text-anchor="middle" pointer-events="none" font-family="sans-serif" dy="1.5625" font-size="25" fill="#FFFFFF"/><text text-anchor="middle" pointer-events="none" font-family="sans-serif" dy="1.5625" font-size="25" fill="#FFFFFF"/><text text-anchor="middle" pointer-events="none" x="0" y="0" font-size="10px" fill="#FFFFFF" font-family="sans-serif"> The</text><text text-anchor="middle" pointer-events="none" x="0" y="10" font-size="10px" fill="#FFFFFF" font-family="sans-serif"> Matrix</text></g><g class="node" transform="translate(147.7776194009754,-31.23500713177114)"><circle class="outline" cx="0" cy="0" r="25" fill="#57C7E3" stroke="#23b3d7" stroke-width="2px"/><text text-anchor="middle" pointer-events="none" font-family="sans-serif" dy="1.5625" font-size="25" fill="#2A2C34"/><text text-anchor="middle" pointer-events="none" font-family="sans-serif" dy="1.5625" font-size="25" fill="#2A2C34"/><text text-anchor="middle" pointer-events="none" x="0" y="0" font-size="10px" fill="#2A2C34" font-family="sans-serif"> Emil</text><text text-anchor="middle" pointer-events="none" x="0" y="10" font-size="10px" fill="#2A2C34" font-family="sans-serif"> Eifrem</text></g><g class="node" transform="translate(-28.720077396539804,23.716479089233243)"><circle class="outline" cx="0" cy="0" r="25" fill="#57C7E3" stroke="#23b3d7" stroke-width="2px"/><text text-anchor="middle" pointer-events="none" font-family="sans-serif" dy="1.5625" font-size="25" fill="#2A2C34"/><text text-anchor="middle" pointer-events="none" font-family="sans-serif" dy="1.5625" font-size="25" fill="#2A2C34"/><text text-anchor="middle" pointer-events="none" x="0" y="0" font-size="10px" fill="#2A2C34" font-family="sans-serif"> Hugo</text><text text-anchor="middle" pointer-events="none" x="0" y="10" font-size="10px" fill="#2A2C34" font-family="sans-serif"> Weaving</text></g><g class="node" transform="translate(51.826742693687756,211.55506932629356)"><circle class="outline" cx="0" cy="0" r="25" fill="#57C7E3" stroke="#23b3d7" stroke-width="2px"/><text text-anchor="middle" pointer-events="none" font-family="sans-serif" dy="1.5625" font-size="25" fill="#2A2C34"/><text text-anchor="middle" pointer-events="none" font-family="sans-serif" dy="1.5625" font-size="25" fill="#2A2C34"/><text text-anchor="middle" pointer-events="none" x="0" y="0" font-size="10px" fill="#2A2C34" font-family="sans-serif"> Laurence</text><text text-anchor="middle" pointer-events="none" x="0" y="10" font-size="10px" fill="#2A2C34" font-family="sans-serif"> Fishbur…</text></g><g class="node" transform="translate(-72.52859366605301,85.80753447892053)"><circle class="outline" cx="0" cy="0" r="25" fill="#57C7E3" stroke="#23b3d7" stroke-width="2px"/><text text-anchor="middle" pointer-events="none" font-family="sans-serif" dy="1.5625" font-size="25" fill="#2A2C34"/><text text-anchor="middle" pointer-events="none" x="0" y="5" font-size="10px" fill="#2A2C34" font-family="sans-serif"> Carrie-A…</text></g><g class="node" transform="translate(124.72572802651278,165.37988892989375)"><circle class="outline" cx="0" cy="0" r="25" fill="#57C7E3" stroke="#23b3d7" stroke-width="2px"/><text text-anchor="middle" pointer-events="none" font-family="sans-serif" dy="1.5625" font-size="25" fill="#2A2C34"/><text text-anchor="middle" pointer-events="none" font-family="sans-serif" dy="1.5625" font-size="25" fill="#2A2C34"/><text text-anchor="middle" pointer-events="none" x="0" y="0" font-size="10px" fill="#2A2C34" font-family="sans-serif"> Keanu</text><text text-anchor="middle" pointer-events="none" x="0" y="10" font-size="10px" fill="#2A2C34" font-family="sans-serif"> Reeves</text></g><g class="node" transform="translate(25.18510446856611,116.55010835014895)"><circle class="outline" cx="0" cy="0" r="25" fill="#F79767" stroke="#f36924" stroke-width="2px"/><text text-anchor="middle" pointer-events="none" font-family="sans-serif" dy="1.5625" font-size="25" fill="#FFFFFF"/><text text-anchor="middle" pointer-events="none" font-family="sans-serif" dy="1.5625" font-size="25" fill="#FFFFFF"/><text text-anchor="middle" pointer-events="none" font-family="sans-serif" dy="1.5625" font-size="25" fill="#FFFFFF"/><text text-anchor="middle" pointer-events="none" x="0" y="-5" font-size="10px" fill="#FFFFFF" font-family="sans-serif"> The</text><text text-anchor="middle" pointer-events="none" x="0" y="5" font-size="10px" fill="#FFFFFF" font-family="sans-serif"> Matrix</text><text text-anchor="middle" pointer-events="none" x="0" y="15" font-size="10px" fill="#FFFFFF" font-family="sans-serif"> Reloa…</text></g><g class="node" transform="translate(-19.12750988630279,161.71526323890538)"><circle class="outline" cx="0" cy="0" r="25" fill="#F79767" stroke="#f36924" stroke-width="2px"/><text text-anchor="middle" pointer-events="none" font-family="sans-serif" dy="1.5625" font-size="25" fill="#FFFFFF"/><text text-anchor="middle" pointer-events="none" font-family="sans-serif" dy="1.5625" font-size="25" fill="#FFFFFF"/><text text-anchor="middle" pointer-events="none" font-family="sans-serif" dy="1.5625" font-size="25" fill="#FFFFFF"/><text text-anchor="middle" pointer-events="none" x="0" y="-5" font-size="10px" fill="#FFFFFF" font-family="sans-serif"> The</text><text text-anchor="middle" pointer-events="none" x="0" y="5" font-size="10px" fill="#FFFFFF" font-family="sans-serif"> Matrix</text><text text-anchor="middle" pointer-events="none" x="0" y="15" font-size="10px" fill="#FFFFFF" font-family="sans-serif"> Revol…</text></g><g class="node" transform="translate(252.36339539953238,170.81647088251512)"><circle class="outline" cx="0" cy="0" r="25" fill="#F79767" stroke="#f36924" stroke-width="2px"/><text text-anchor="middle" pointer-events="none" font-family="sans-serif" dy="1.5625" font-size="25" fill="#FFFFFF"/><text text-anchor="middle" pointer-events="none" font-family="sans-serif" dy="1.5625" font-size="25" fill="#FFFFFF"/><text text-anchor="middle" pointer-events="none" font-family="sans-serif" dy="1.5625" font-size="25" fill="#FFFFFF"/><text text-anchor="middle" pointer-events="none" x="0" y="-5" font-size="10px" fill="#FFFFFF" font-family="sans-serif"> The</text><text text-anchor="middle" pointer-events="none" x="0" y="5" font-size="10px" fill="#FFFFFF" font-family="sans-serif"> Devil's</text><text text-anchor="middle" pointer-events="none" x="0" y="15" font-size="10px" fill="#FFFFFF" font-family="sans-serif"> Advoc…</text></g><g class="node" transform="translate(216.76338736298484,250.52241117908574)"><circle class="outline" cx="0" cy="0" r="25" fill="#F79767" stroke="#f36924" stroke-width="2px"/><text text-anchor="middle" pointer-events="none" font-family="sans-serif" dy="1.5625" font-size="25" fill="#FFFFFF"/><text text-anchor="middle" pointer-events="none" font-family="sans-serif" dy="1.5625" font-size="25" fill="#FFFFFF"/><text text-anchor="middle" pointer-events="none" x="0" y="0" font-size="10px" fill="#FFFFFF" font-family="sans-serif"> The</text><text text-anchor="middle" pointer-events="none" x="0" y="10" font-size="10px" fill="#FFFFFF" font-family="sans-serif"> Replac…</text></g><g class="node" transform="translate(227.92838222755688,90.99750566926375)"><circle class="outline" cx="0" cy="0" r="25" fill="#F79767" stroke="#f36924" stroke-width="2px"/><text text-anchor="middle" pointer-events="none" font-family="sans-serif" dy="1.5625" font-size="25" fill="#FFFFFF"/><text text-anchor="middle" pointer-events="none" font-family="sans-serif" dy="1.5625" font-size="25" fill="#FFFFFF"/><text text-anchor="middle" pointer-events="none" x="0" y="0" font-size="10px" fill="#FFFFFF" font-family="sans-serif"> Johnny</text><text text-anchor="middle" pointer-events="none" x="0" y="10" font-size="10px" fill="#FFFFFF" font-family="sans-serif"> Mnemo…</text></g><g class="node" transform="translate(-111.4912145060558,-60.32197073545859)"><circle class="outline" cx="0" cy="0" r="25" fill="#F79767" stroke="#f36924" stroke-width="2px"/><text text-anchor="middle" pointer-events="none" font-family="sans-serif" dy="1.5625" font-size="25" fill="#FFFFFF"/><text text-anchor="middle" pointer-events="none" font-family="sans-serif" dy="1.5625" font-size="25" fill="#FFFFFF"/><text text-anchor="middle" pointer-events="none" x="0" y="0" font-size="10px" fill="#FFFFFF" font-family="sans-serif"> Cloud</text><text text-anchor="middle" pointer-events="none" x="0" y="10" font-size="10px" fill="#FFFFFF" font-family="sans-serif"> Atlas</text></g><g class="node" transform="translate(2.263661006940797,-94.70704937970797)"><circle class="outline" cx="0" cy="0" r="25" fill="#F79767" stroke="#f36924" stroke-width="2px"/><text text-anchor="middle" pointer-events="none" font-family="sans-serif" dy="1.5625" font-size="25" fill="#FFFFFF"/><text text-anchor="middle" pointer-events="none" font-family="sans-serif" dy="1.5625" font-size="25" fill="#FFFFFF"/><text text-anchor="middle" pointer-events="none" x="0" y="0" font-size="10px" fill="#FFFFFF" font-family="sans-serif"> V for</text><text text-anchor="middle" pointer-events="none" x="0" y="10" font-size="10px" fill="#FFFFFF" font-family="sans-serif"> Vendetta</text></g><g class="node" transform="translate(131.7291215122441,291.4073244227822)"><circle class="outline" cx="0" cy="0" r="25" fill="#F79767" stroke="#f36924" stroke-width="2px"/><text text-anchor="middle" pointer-events="none" font-family="sans-serif" dy="1.5625" font-size="25" fill="#FFFFFF"/><text text-anchor="middle" pointer-events="none" x="0" y="5" font-size="10px" fill="#FFFFFF" font-family="sans-serif"> Somethi…</text></g></g></svg>