<svg xmlns="http://www.w3.org/2000/svg" width="574.5778198242188" height="570.2014770507812" viewBox="-146.7650909423828 -148.68414306640625 574.5778198242188 570.2014770507812"><title>Neo4j Graph Visualization</title><desc>Created using Neo4j (http://www.neo4j.com/)</desc><g class="layer relationships"><g class="relationship" transform="translate(5.116581495880675 380.0844423581455) rotate(366.5408108684799)"><path class="outline" fill="#A5ABB6" stroke="none" d="M 25 0.5 L 28.29141101556538 0.5 L 28.29141101556538 -0.5 L 25 -0.5 Z M 73.85391101556539 0.5 L 77.14532203113076 0.5 L 77.14532203113076 3.5 L 84.14532203113076 0 L 77.14532203113076 -3.5 L 77.14532203113076 -0.5 L 73.85391101556539 -0.5 Z"/><text text-anchor="middle" pointer-events="none" font-size="8px" fill="#000000" x="51.07266101556538" y="3" font-family="sans-serif">ACTED_IN</text></g><g class="relationship" transform="translate(222.87042002565113 381.1950367782507) rotate(534.0869154504134)"><path class="outline" fill="#A5ABB6" stroke="none" d="M 25 0.5 L 28.6706047143538 0.5 L 28.6706047143538 -0.5 L 25 -0.5 Z M 74.2331047143538 0.5 L 77.9037094287076 0.5 L 77.9037094287076 3.5 L 84.9037094287076 0 L 77.9037094287076 -3.5 L 77.9037094287076 -0.5 L 74.2331047143538 -0.5 Z"/><text text-anchor="middle" pointer-events="none" font-size="8px" fill="#000000" x="51.4518547143538" y="3" transform="rotate(180 51.4518547143538 0)" font-family="sans-serif">ACTED_IN</text></g><g class="relationship" transform="translate(143.15559305303051 288.33054596039415) rotate(465.8622233594621)"><path class="outline" fill="#A5ABB6" stroke="none" d="M 25 0.5 L 27.874267050917716 0.5 L 27.874267050917716 -0.5 L 25 -0.5 Z M 73.43676705091772 0.5 L 76.31103410183543 0.5 L 76.31103410183543 3.5 L 83.31103410183543 0 L 76.31103410183543 -3.5 L 76.31103410183543 -0.5 L 73.43676705091772 -0.5 Z"/><text text-anchor="middle" pointer-events="none" font-size="8px" fill="#000000" x="50.655517050917716" y="3" transform="rotate(180 50.655517050917716 0)" font-family="sans-serif">ACTED_IN</text></g><g class="relationship" transform="translate(398.81273736605465 95.95347062071752) rotate(234.85160386133145)"><path class="outline" fill="#A5ABB6" stroke="none" d="M 25 0.5 L 28.54181389047013 0.5 L 28.54181389047013 -0.5 L 25 -0.5 Z M 74.10431389047014 0.5 L 77.64612778094026 0.5 L 77.64612778094026 3.5 L 84.64612778094026 0 L 77.64612778094026 -3.5 L 77.64612778094026 -0.5 L 74.10431389047014 -0.5 Z"/><text text-anchor="middle" pointer-events="none" font-size="8px" fill="#000000" x="51.32306389047013" y="3" transform="rotate(180 51.32306389047013 0)" font-family="sans-serif">ACTED_IN</text></g><g class="relationship" transform="translate(346.4332902816684 -102.13658838177355) rotate(455.65814938979804)"><path class="outline" fill="#A5ABB6" stroke="none" d="M 25 0.5 L 28.202400806824095 0.5 L 28.202400806824095 -0.5 L 25 -0.5 Z M 73.7649008068241 0.5 L 76.96730161364819 0.5 L 76.96730161364819 3.5 L 83.96730161364819 0 L 76.96730161364819 -3.5 L 76.96730161364819 -0.5 L 73.7649008068241 -0.5 Z"/><text text-anchor="middle" pointer-events="none" font-size="8px" fill="#000000" x="50.983650806824095" y="3" transform="rotate(180 50.983650806824095 0)" font-family="sans-serif">ACTED_IN</text></g><g class="relationship" transform="translate(275.27439213763284 97.6140231049989) rotate(303.4894989216044)"><path class="outline" fill="#A5ABB6" stroke="none" d="M 25 0.5 L 28.464338681164776 0.5 L 28.464338681164776 -0.5 L 25 -0.5 Z M 74.02683868116478 0.5 L 77.49117736232955 0.5 L 77.49117736232955 3.5 L 84.49117736232955 0 L 77.49117736232955 -3.5 L 77.49117736232955 -0.5 L 74.02683868116478 -0.5 Z"/><text text-anchor="middle" pointer-events="none" font-size="8px" fill="#000000" x="51.245588681164776" y="3" font-family="sans-serif">ACTED_IN</text></g><g class="relationship" transform="translate(238.7076132913969 -49.94527129321156) rotate(390.1116821016793)"><path class="outline" fill="#A5ABB6" stroke="none" d="M 25 0.5 L 29.774683008572644 0.5 L 29.774683008572644 -0.5 L 25 -0.5 Z M 75.33718300857265 0.5 L 80.11186601714529 0.5 L 80.11186601714529 3.5 L 87.11186601714529 0 L 80.11186601714529 -3.5 L 80.11186601714529 -0.5 L 75.33718300857265 -0.5 Z"/><text text-anchor="middle" pointer-events="none" font-size="8px" fill="#000000" x="52.555933008572644" y="3" font-family="sans-serif">ACTED_IN</text></g><g class="relationship" transform="translate(7.406990986084559 -7.486878088203556) rotate(252.92673194846532)"><path class="outline" fill="#A5ABB6" stroke="none" d="M 25 0.5 L 32.403615288374354 0.5 L 32.403615288374354 -0.5 L 25 -0.5 Z M 77.96611528837435 0.5 L 85.36973057674871 0.5 L 85.36973057674871 3.5 L 92.36973057674871 0 L 85.36973057674871 -3.5 L 85.36973057674871 -0.5 L 77.96611528837435 -0.5 Z"/><text text-anchor="middle" pointer-events="none" font-size="8px" fill="#000000" x="55.184865288374354" y="3" transform="rotate(180 55.184865288374354 0)" font-family="sans-serif">ACTED_IN</text></g><g class="relationship" transform="translate(7.406990986084559 -7.486878088203556) rotate(510.43939803386974)"><path class="outline" fill="#A5ABB6" stroke="none" d="M 25 0.5 L 43.30299932749857 0.5 L 43.30299932749857 -0.5 L 25 -0.5 Z M 88.86549932749857 0.5 L 107.16849865499714 0.5 L 107.16849865499714 3.5 L 114.16849865499714 0 L 107.16849865499714 -3.5 L 107.16849865499714 -0.5 L 88.86549932749857 -0.5 Z"/><text text-anchor="middle" pointer-events="none" font-size="8px" fill="#000000" x="66.08424932749857" y="3" transform="rotate(180 66.08424932749857 0)" font-family="sans-serif">ACTED_IN</text></g><g class="relationship" transform="translate(7.406990986084559 -7.486878088203556) rotate(478.3687941350962)"><path class="outline" fill="#A5ABB6" stroke="none" d="M 25 0.5 L 27.84780401421426 0.5 L 27.84780401421426 -0.5 L 25 -0.5 Z M 63.18374151421426 0.5 L 66.03154552842852 0.5 L 66.03154552842852 3.5 L 73.03154552842852 0 L 66.03154552842852 -3.5 L 66.03154552842852 -0.5 L 63.18374151421426 -0.5 Z"/><text text-anchor="middle" pointer-events="none" font-size="8px" fill="#000000" x="45.51577276421426" y="3" transform="rotate(180 45.51577276421426 0)" font-family="sans-serif">ACTE…</text></g><g class="relationship" transform="translate(-55.43120105298005 -25.501893914798707) rotate(286.7686650077168)"><path class="outline" fill="#A5ABB6" stroke="none" d="M 25 0.5 L 25.12584648198525 0.5 L 25.12584648198525 -0.5 L 25 -0.5 Z M 66.23912773198525 0.5 L 66.3649742139705 0.5 L 66.3649742139705 3.5 L 73.3649742139705 0 L 66.3649742139705 -3.5 L 66.3649742139705 -0.5 L 66.23912773198525 -0.5 Z"/><text text-anchor="middle" pointer-events="none" font-size="8px" fill="#000000" x="45.68248710698525" y="3" font-family="sans-serif">ACTED…</text></g><g class="relationship" transform="translate(-55.43120105298005 -25.501893914798707) rotate(483.887953655525)"><path class="outline" fill="#A5ABB6" stroke="none" d="M 25 0.5 L 25.923217647907514 0.5 L 25.923217647907514 -0.5 L 25 -0.5 Z M 71.4857176479075 0.5 L 72.40893529581503 0.5 L 72.40893529581503 3.5 L 79.40893529581503 0 L 72.40893529581503 -3.5 L 72.40893529581503 -0.5 L 71.4857176479075 -0.5 Z"/><text text-anchor="middle" pointer-events="none" font-size="8px" fill="#000000" x="48.704467647907514" y="3" transform="rotate(180 48.704467647907514 0)" font-family="sans-serif">ACTED_IN</text></g><g class="relationship" transform="translate(-55.43120105298005 -25.501893914798707) rotate(441.1374593097994)"><path class="outline" fill="#A5ABB6" stroke="none" d="M 25 0.5 L 26.485597249743527 0.5 L 26.485597249743527 -0.5 L 25 -0.5 Z M 72.04809724974353 0.5 L 73.53369449948705 0.5 L 73.53369449948705 3.5 L 80.53369449948705 0 L 73.53369449948705 -3.5 L 73.53369449948705 -0.5 L 72.04809724974353 -0.5 Z"/><text text-anchor="middle" pointer-events="none" font-size="8px" fill="#000000" x="49.26684724974353" y="3" font-family="sans-serif">ACTED_IN</text></g><g class="relationship" transform="translate(-117.76509318012417 -34.470185774028316) rotate(316.79034205938274)"><path class="outline" fill="#A5ABB6" stroke="none" d="M 25 0.5 L 35.94869562385826 0.5 L 35.94869562385826 -0.5 L 25 -0.5 Z M 81.51119562385826 0.5 L 92.45989124771651 0.5 L 92.45989124771651 3.5 L 99.45989124771651 0 L 92.45989124771651 -3.5 L 92.45989124771651 -0.5 L 81.51119562385826 -0.5 Z"/><text text-anchor="middle" pointer-events="none" font-size="8px" fill="#000000" x="58.72994562385826" y="3" font-family="sans-serif">ACTED_IN</text></g><g class="relationship" transform="translate(-117.76509318012417 -34.470185774028316) rotate(447.53422981142273)"><path class="outline" fill="#A5ABB6" stroke="none" d="M 25 0.5 L 26.69696548576829 0.5 L 26.69696548576829 -0.5 L 25 -0.5 Z M 62.03290298576829 0.5 L 63.72986847153658 0.5 L 63.72986847153658 3.5 L 70.72986847153658 0 L 63.72986847153658 -3.5 L 63.72986847153658 -0.5 L 62.03290298576829 -0.5 Z"/><text text-anchor="middle" pointer-events="none" font-size="8px" fill="#000000" x="44.36493423576829" y="3" font-family="sans-serif">ACTE…</text></g><g class="relationship" transform="translate(-117.76509318012417 -34.470185774028316) rotate(415.2383500190242)"><path class="outline" fill="#A5ABB6" stroke="none" d="M 25 0.5 L 42.640066135470946 0.5 L 42.640066135470946 -0.5 L 25 -0.5 Z M 88.20256613547095 0.5 L 105.84263227094189 0.5 L 105.84263227094189 3.5 L 112.84263227094189 0 L 105.84263227094189 -3.5 L 105.84263227094189 -0.5 L 88.20256613547095 -0.5 Z"/><text text-anchor="middle" pointer-events="none" font-size="8px" fill="#000000" x="65.42131613547095" y="3" font-family="sans-serif">ACTED_IN</text></g><g class="relationship" transform="translate(-58.154927917099656 190.55307211251213) rotate(279.63803273259884)"><path class="outline" fill="#A5ABB6" stroke="none" d="M 25 0.5 L 30.409563645261514 0.5 L 30.409563645261514 -0.5 L 25 -0.5 Z M 75.97206364526151 0.5 L 81.38162729052303 0.5 L 81.38162729052303 3.5 L 88.38162729052303 0 L 81.38162729052303 -3.5 L 81.38162729052303 -0.5 L 75.97206364526151 -0.5 Z"/><text text-anchor="middle" pointer-events="none" font-size="8px" fill="#000000" x="53.190813645261514" y="3" font-family="sans-serif">ACTED_IN</text></g></g><g class="layer nodes"><g class="node" transform="translate(5.116581495880675,380.0844423581455)"><circle class="outline" cx="0" cy="0" r="25" fill="#57C7E3" stroke="#23b3d7" stroke-width="2px"/><text text-anchor="middle" pointer-events="none" font-family="sans-serif" dy="1.5625" font-size="25" fill="#2A2C34"/><text text-anchor="middle" pointer-events="none" font-family="sans-serif" dy="1.5625" font-size="25" fill="#2A2C34"/><text text-anchor="middle" pointer-events="none" x="0" y="0" font-size="10px" fill="#2A2C34" font-family="sans-serif"> Tom</text><text text-anchor="middle" pointer-events="none" x="0" y="10" font-size="10px" fill="#2A2C34" font-family="sans-serif"> Hanks</text></g><g class="node" transform="translate(113.55147343875763,392.517283168509)"><circle class="outline" cx="0" cy="0" r="25" fill="#F79767" stroke="#f36924" stroke-width="2px"/><text text-anchor="middle" pointer-events="none" font-family="sans-serif" dy="1.5625" font-size="25" fill="#FFFFFF"/><text text-anchor="middle" pointer-events="none" font-family="sans-serif" dy="1.5625" font-size="25" fill="#FFFFFF"/><text text-anchor="middle" pointer-events="none" x="0" y="0" font-size="10px" fill="#FFFFFF" font-family="sans-serif"> Cloud</text><text text-anchor="middle" pointer-events="none" x="0" y="10" font-size="10px" fill="#FFFFFF" font-family="sans-serif"> Atlas</text></g><g class="node" transform="translate(222.87042002565113,381.1950367782507)"><circle class="outline" cx="0" cy="0" r="25" fill="#57C7E3" stroke="#23b3d7" stroke-width="2px"/><text text-anchor="middle" pointer-events="none" font-family="sans-serif" dy="1.5625" font-size="25" fill="#2A2C34"/><text text-anchor="middle" pointer-events="none" font-family="sans-serif" dy="1.5625" font-size="25" fill="#2A2C34"/><text text-anchor="middle" pointer-events="none" x="0" y="0" font-size="10px" fill="#2A2C34" font-family="sans-serif"> Jim</text><text text-anchor="middle" pointer-events="none" x="0" y="10" font-size="10px" fill="#2A2C34" font-family="sans-serif"> Broadb…</text></g><g class="node" transform="translate(143.15559305303051,288.33054596039415)"><circle class="outline" cx="0" cy="0" r="25" fill="#57C7E3" stroke="#23b3d7" stroke-width="2px"/><text text-anchor="middle" pointer-events="none" font-family="sans-serif" dy="1.5625" font-size="25" fill="#2A2C34"/><text text-anchor="middle" pointer-events="none" font-family="sans-serif" dy="1.5625" font-size="25" fill="#2A2C34"/><text text-anchor="middle" pointer-events="none" x="0" y="0" font-size="10px" fill="#2A2C34" font-family="sans-serif"> Halle</text><text text-anchor="middle" pointer-events="none" x="0" y="10" font-size="10px" fill="#2A2C34" font-family="sans-serif"> Berry</text></g><g class="node" transform="translate(398.81273736605465,95.95347062071752)"><circle class="outline" cx="0" cy="0" r="25" fill="#57C7E3" stroke="#23b3d7" stroke-width="2px"/><text text-anchor="middle" pointer-events="none" font-family="sans-serif" dy="1.5625" font-size="25" fill="#2A2C34"/><text text-anchor="middle" pointer-events="none" x="0" y="5" font-size="10px" fill="#2A2C34" font-family="sans-serif"> Ben Miles</text></g><g class="node" transform="translate(335.68988758151244,6.299808272588105)"><circle class="outline" cx="0" cy="0" r="25" fill="#F79767" stroke="#f36924" stroke-width="2px"/><text text-anchor="middle" pointer-events="none" font-family="sans-serif" dy="1.5625" font-size="25" fill="#FFFFFF"/><text text-anchor="middle" pointer-events="none" font-family="sans-serif" dy="1.5625" font-size="25" fill="#FFFFFF"/><text text-anchor="middle" pointer-events="none" x="0" y="0" font-size="10px" fill="#FFFFFF" font-family="sans-serif"> V for</text><text text-anchor="middle" pointer-events="none" x="0" y="10" font-size="10px" fill="#FFFFFF" font-family="sans-serif"> Vendetta</text></g><g class="node" transform="translate(346.4332902816684,-102.13658838177355)"><circle class="outline" cx="0" cy="0" r="25" fill="#57C7E3" stroke="#23b3d7" stroke-width="2px"/><text text-anchor="middle" pointer-events="none" font-family="sans-serif" dy="1.5625" font-size="25" fill="#2A2C34"/><text text-anchor="middle" pointer-events="none" font-family="sans-serif" dy="1.5625" font-size="25" fill="#2A2C34"/><text text-anchor="middle" pointer-events="none" x="0" y="0" font-size="10px" fill="#2A2C34" font-family="sans-serif"> Natalie</text><text text-anchor="middle" pointer-events="none" x="0" y="10" font-size="10px" fill="#2A2C34" font-family="sans-serif"> Portman</text></g><g class="node" transform="translate(275.27439213763284,97.6140231049989)"><circle class="outline" cx="0" cy="0" r="25" fill="#57C7E3" stroke="#23b3d7" stroke-width="2px"/><text text-anchor="middle" pointer-events="none" font-family="sans-serif" dy="1.5625" font-size="25" fill="#2A2C34"/><text text-anchor="middle" pointer-events="none" x="0" y="5" font-size="10px" fill="#2A2C34" font-family="sans-serif"> John Hurt</text></g><g class="node" transform="translate(238.7076132913969,-49.94527129321156)"><circle class="outline" cx="0" cy="0" r="25" fill="#57C7E3" stroke="#23b3d7" stroke-width="2px"/><text text-anchor="middle" pointer-events="none" font-family="sans-serif" dy="1.5625" font-size="25" fill="#2A2C34"/><text text-anchor="middle" pointer-events="none" font-family="sans-serif" dy="1.5625" font-size="25" fill="#2A2C34"/><text text-anchor="middle" pointer-events="none" x="0" y="0" font-size="10px" fill="#2A2C34" font-family="sans-serif"> Stephen</text><text text-anchor="middle" pointer-events="none" x="0" y="10" font-size="10px" fill="#2A2C34" font-family="sans-serif"> Rea</text></g><g class="node" transform="translate(7.406990986084559,-7.486878088203556)"><circle class="outline" cx="0" cy="0" r="25" fill="#57C7E3" stroke="#23b3d7" stroke-width="2px"/><text text-anchor="middle" pointer-events="none" font-family="sans-serif" dy="1.5625" font-size="25" fill="#2A2C34"/><text text-anchor="middle" pointer-events="none" font-family="sans-serif" dy="1.5625" font-size="25" fill="#2A2C34"/><text text-anchor="middle" pointer-events="none" x="0" y="0" font-size="10px" fill="#2A2C34" font-family="sans-serif"> Laurence</text><text text-anchor="middle" pointer-events="none" x="0" y="10" font-size="10px" fill="#2A2C34" font-family="sans-serif"> Fishbur…</text></g><g class="node" transform="translate(-27.05209970688205,-119.68413618425724)"><circle class="outline" cx="0" cy="0" r="25" fill="#F79767" stroke="#f36924" stroke-width="2px"/><text text-anchor="middle" pointer-events="none" font-family="sans-serif" dy="1.5625" font-size="25" fill="#FFFFFF"/><text text-anchor="middle" pointer-events="none" font-family="sans-serif" dy="1.5625" font-size="25" fill="#FFFFFF"/><text text-anchor="middle" pointer-events="none" font-family="sans-serif" dy="1.5625" font-size="25" fill="#FFFFFF"/><text text-anchor="middle" pointer-events="none" x="0" y="-5" font-size="10px" fill="#FFFFFF" font-family="sans-serif"> The</text><text text-anchor="middle" pointer-events="none" x="0" y="5" font-size="10px" fill="#FFFFFF" font-family="sans-serif"> Matrix</text><text text-anchor="middle" pointer-events="none" x="0" y="15" font-size="10px" fill="#FFFFFF" font-family="sans-serif"> Revol…</text></g><g class="node" transform="translate(-55.43120105298005,-25.501893914798707)"><circle class="outline" cx="0" cy="0" r="25" fill="#57C7E3" stroke="#23b3d7" stroke-width="2px"/><text text-anchor="middle" pointer-events="none" font-family="sans-serif" dy="1.5625" font-size="25" fill="#2A2C34"/><text text-anchor="middle" pointer-events="none" x="0" y="5" font-size="10px" fill="#2A2C34" font-family="sans-serif"> Carrie-A…</text></g><g class="node" transform="translate(-117.76509318012417,-34.470185774028316)"><circle class="outline" cx="0" cy="0" r="25" fill="#57C7E3" stroke="#23b3d7" stroke-width="2px"/><text text-anchor="middle" pointer-events="none" font-family="sans-serif" dy="1.5625" font-size="25" fill="#2A2C34"/><text text-anchor="middle" pointer-events="none" font-family="sans-serif" dy="1.5625" font-size="25" fill="#2A2C34"/><text text-anchor="middle" pointer-events="none" x="0" y="0" font-size="10px" fill="#2A2C34" font-family="sans-serif"> Keanu</text><text text-anchor="middle" pointer-events="none" x="0" y="10" font-size="10px" fill="#2A2C34" font-family="sans-serif"> Reeves</text></g><g class="node" transform="translate(-113.64655249000167,61.17104665300339)"><circle class="outline" cx="0" cy="0" r="25" fill="#F79767" stroke="#f36924" stroke-width="2px"/><text text-anchor="middle" pointer-events="none" font-family="sans-serif" dy="1.5625" font-size="25" fill="#FFFFFF"/><text text-anchor="middle" pointer-events="none" font-family="sans-serif" dy="1.5625" font-size="25" fill="#FFFFFF"/><text text-anchor="middle" pointer-events="none" font-family="sans-serif" dy="1.5625" font-size="25" fill="#FFFFFF"/><text text-anchor="middle" pointer-events="none" x="0" y="-5" font-size="10px" fill="#FFFFFF" font-family="sans-serif"> The</text><text text-anchor="middle" pointer-events="none" x="0" y="5" font-size="10px" fill="#FFFFFF" font-family="sans-serif"> Matrix</text><text text-anchor="middle" pointer-events="none" x="0" y="15" font-size="10px" fill="#FFFFFF" font-family="sans-serif"> Reloa…</text></g><g class="node" transform="translate(-58.154927917099656,190.55307211251213)"><circle class="outline" cx="0" cy="0" r="25" fill="#57C7E3" stroke="#23b3d7" stroke-width="2px"/><text text-anchor="middle" pointer-events="none" font-family="sans-serif" dy="1.5625" font-size="25" fill="#2A2C34"/><text text-anchor="middle" pointer-events="none" font-family="sans-serif" dy="1.5625" font-size="25" fill="#2A2C34"/><text text-anchor="middle" pointer-events="none" x="0" y="0" font-size="10px" fill="#2A2C34" font-family="sans-serif"> Emil</text><text text-anchor="middle" pointer-events="none" x="0" y="10" font-size="10px" fill="#2A2C34" font-family="sans-serif"> Eifrem</text></g><g class="node" transform="translate(-39.17221185830124,78.77181295840296)"><circle class="outline" cx="0" cy="0" r="25" fill="#F79767" stroke="#f36924" stroke-width="2px"/><text text-anchor="middle" pointer-events="none" font-family="sans-serif" dy="1.5625" font-size="25" fill="#FFFFFF"/><text text-anchor="middle" pointer-events="none" font-family="sans-serif" dy="1.5625" font-size="25" fill="#FFFFFF"/><text text-anchor="middle" pointer-events="none" x="0" y="0" font-size="10px" fill="#FFFFFF" font-family="sans-serif"> The</text><text text-anchor="middle" pointer-events="none" x="0" y="10" font-size="10px" fill="#FFFFFF" font-family="sans-serif"> Matrix</text></g></g></svg>