<svg xmlns="http://www.w3.org/2000/svg" width="201.3436279296875" height="236.44003295898438" viewBox="-13.585339546203613 -10.035797119140625 201.3436279296875 236.44003295898438"><title>Neo4j Graph Visualization</title><desc>Created using Neo4j (http://www.neo4j.com/)</desc><g class="layer relationships"><g class="relationship" transform="translate(158.75828049037452 21.41614746223832) rotate(181.28613064098937)"><path class="outline" fill="#A5ABB6" stroke="none" d="M 21.40063509461097,12.933012701892217 L 21.90063509461097,12.06698729810778 A 61.7869726450437 61.7869726450437 0 0 0 22.355278702031498,12.326913143922916 L 21.86263694581587,13.197145354331603 A 62.7869726450437 62.7869726450437 0 0 1 21.40063509461097,12.933012701892217 Z M 80.3545805125503,14.972658323363795 L 79.91562864189352,14.074147747328702 A 61.7869726450437 61.7869726450437 0 0 0 80.38520067196413,13.842276309530881 L 79.04554549513563,11.158002849691778 L 86.87178127439346,11.163793140237551 L 82.17140757440214,17.42130758931635 L 80.83175239757364,14.737034129477248 A 62.7869726450437 62.7869726450437 0 0 1 80.3545805125503,14.972658323363795"/><text text-anchor="middle" pointer-events="none" font-size="8px" fill="#000000" x="50.90428145141863" y="23.816195728893057" transform="rotate(180 50.90428145141863 20.816195728893057)" font-family="sans-serif">PublicTransp…</text></g><g class="relationship" transform="translate(49.545074530009614 18.964203383826064) rotate(468.74160249197223)"><path class="outline" fill="#A5ABB6" stroke="none" d="M 25 0.5 L 39.944917792194914 0.5 L 39.944917792194914 -0.5 L 25 -0.5 Z M 59.280855292194914 0.5 L 74.22577308438983 0.5 L 74.22577308438983 3.5 L 81.22577308438983 0 L 74.22577308438983 -3.5 L 74.22577308438983 -0.5 L 59.280855292194914 -0.5 Z"/><text text-anchor="middle" pointer-events="none" font-size="8px" fill="#000000" x="49.612886542194914" y="3" transform="rotate(180 49.612886542194914 0)" font-family="sans-serif">trek</text></g><g class="relationship" transform="translate(15.414661847602144 119.55759182215654) rotate(406.6617769859153)"><path class="outline" fill="#A5ABB6" stroke="none" d="M 25 0.5 L 40.348478352456176 0.5 L 40.348478352456176 -0.5 L 25 -0.5 Z M 59.684415852456176 0.5 L 75.03289420491235 0.5 L 75.03289420491235 3.5 L 82.03289420491235 0 L 75.03289420491235 -3.5 L 75.03289420491235 -0.5 L 59.684415852456176 -0.5 Z"/><text text-anchor="middle" pointer-events="none" font-size="8px" fill="#000000" x="50.016447102456176" y="3" font-family="sans-serif">trek</text></g><g class="relationship" transform="translate(158.75828049037452 21.41614746223832) rotate(181.28613064098937)"><path class="outline" fill="#A5ABB6" stroke="none" d="M 25 0.5 L 40.11450401152633 0.5 L 40.11450401152633 -0.5 L 25 -0.5 Z M 62.12622276152633 0.5 L 77.24072677305266 0.5 L 77.24072677305266 3.5 L 84.24072677305266 0 L 77.24072677305266 -3.5 L 77.24072677305266 -0.5 L 62.12622276152633 -0.5 Z"/><text text-anchor="middle" pointer-events="none" font-size="8px" fill="#000000" x="51.12036338652633" y="3" transform="rotate(180 51.12036338652633 0)" font-family="sans-serif">road</text></g><g class="relationship" transform="translate(158.75828049037452 21.41614746223832) rotate(181.28613064098937)"><path class="outline" fill="#A5ABB6" stroke="none" d="M 21.40063509461097,-12.933012701892217 L 21.90063509461097,-12.06698729810778 A 61.7869726450437 61.7869726450437 0 0 1 41.39448854368493,-19.28415693894607 L 41.20998957269735,-20.266989645821724 A 62.7869726450437 62.7869726450437 0 0 0 21.40063509461097,-12.933012701892217 Z M 60.614036251422476,-20.85599617268599 L 60.48948947834427,-19.86378243496825 A 61.7869726450437 61.7869726450437 0 0 1 80.38520067196413,-13.842276309530881 L 79.04554549513563,-11.158002849691778 L 86.87178127439346,-11.163793140237551 L 82.17140757440214,-17.42130758931635 L 80.83175239757364,-14.737034129477248 A 62.7869726450437 62.7869726450437 0 0 0 60.614036251422476,-20.85599617268599"/><text text-anchor="middle" pointer-events="none" font-size="8px" fill="#000000" x="50.904281451418626" y="-17.816195728893057" transform="rotate(180 50.904281451418626 -20.816195728893057)" font-family="sans-serif">trek</text></g></g><g class="layer nodes"><g class="node" transform="translate(158.75828049037452,21.41614746223832)"><circle class="outline" cx="0" cy="0" r="25" fill="#F16667" stroke="#eb2728" stroke-width="2px"/><text text-anchor="middle" pointer-events="none" font-family="sans-serif" dy="1.5625" font-size="25" fill="#FFFFFF"/><text text-anchor="middle" pointer-events="none" x="0" y="5" font-size="10px" fill="#FFFFFF" font-family="sans-serif"> Darjeeling</text></g><g class="node" transform="translate(88.87173425220155,197.40422922946786)"><circle class="outline" cx="0" cy="0" r="25" fill="#D9C8AE" stroke="#c0a378" stroke-width="2px"/><text text-anchor="middle" pointer-events="none" font-family="sans-serif" dy="1.5625" font-size="25" fill="#2A2C34"/><text text-anchor="middle" pointer-events="none" x="0" y="5" font-size="10px" fill="#2A2C34" font-family="sans-serif"> Sandak…</text></g><g class="node" transform="translate(49.545074530009614,18.964203383826064)"><circle class="outline" cx="0" cy="0" r="25" fill="#F16667" stroke="#eb2728" stroke-width="2px"/><text text-anchor="middle" pointer-events="none" font-family="sans-serif" dy="1.5625" font-size="25" fill="#FFFFFF"/><text text-anchor="middle" pointer-events="none" x="0" y="5" font-size="10px" fill="#FFFFFF" font-family="sans-serif"> Rimbik</text></g><g class="node" transform="translate(15.414661847602144,119.55759182215654)"><circle class="outline" cx="0" cy="0" r="25" fill="#8DCC93" stroke="#5db665" stroke-width="2px"/><text text-anchor="middle" pointer-events="none" font-family="sans-serif" dy="1.5625" font-size="25" fill="#2A2C34"/><text text-anchor="middle" pointer-events="none" x="0" y="5" font-size="10px" fill="#2A2C34" font-family="sans-serif"> BhikeBh…</text></g></g></svg>